<svg xmlns="http://www.w3.org/2000/svg" width="256" height="256" fill="none" stroke="currentColor" stroke-width="8">
    <rect x="18" y="18" width="220" height="220" rx="8" ry="8"/>
    <path d="M18 58 l 220 0 M 38 40 l 120 0 m 20 0 l 40 0
    M50 154 l 20 -50 l 20 50 m -10 -20 l 30 -45 l 40 65
    M172 76 l 40 0 m-40 16 l50 0 m-50 16 l18 0 m 10 0 l 16 0 m -44 16 l55 0 m-55 16 l45 0
    M32 170 l 60 0 m 10 0 l 28 0 m 10 0 l 80 0
    M32 186 l 42 0 m 10 0 l 80 0 m 10 0 l 32 0
    M32 202 l 55 0 m 10 0 l 24 0 m 10 0 l 96 0
    M32 218 l 31 0 m 10 0 l 50 0 m 10 0 l 44 0 m 10 0 l 20 0" />
    <rect x="38" y="74" width="120" height="80" rx="4"/>
</svg>
