<?xml version="1.0" standalone="no"?>
<!DOCTYPE svg PUBLIC "-//W3C//DTD SVG 20010904//EN"
 "http://www.w3.org/TR/2001/REC-SVG-20010904/DTD/svg10.dtd">
<svg version="1.0" xmlns="http://www.w3.org/2000/svg"
 width="128.000000pt" height="128.000000pt" viewBox="0 0 128.000000 128.000000"
 preserveAspectRatio="xMidYMid meet">
<metadata>
Created by potrace 1.14, written by Peter Selinger 2001-2017
</metadata>
<g transform="translate(0.000000,128.000000) scale(0.100000,-0.100000)"
fill="#000000" stroke="none">
<path d="M430 1135 c0 -9 -4 -14 -9 -11 -5 3 -12 -1 -15 -10 -4 -9 -9 -14 -13
-11 -3 4 -14 2 -24 -4 -13 -6 -19 -6 -19 1 0 5 -7 10 -16 10 -14 0 -14 -3 -4
-15 11 -13 8 -15 -16 -16 -24 -1 -25 -2 -6 -6 27 -5 28 -14 2 -31 -12 -7 -18
-17 -15 -21 3 -5 -8 -15 -24 -22 -26 -11 -27 -15 -13 -25 22 -16 28 -118 7
-110 -19 7 -19 -8 0 -27 8 -8 11 -17 8 -21 -4 -3 -1 -6 5 -6 15 0 5 -27 -23
-65 -12 -16 -26 -41 -30 -55 -10 -31 -12 -80 -3 -80 3 0 9 -14 13 -31 5 -20
11 -29 21 -25 8 3 14 2 14 -3 0 -5 21 -16 46 -26 25 -9 48 -24 52 -33 3 -9 14
-26 25 -38 10 -12 18 -25 17 -29 -1 -4 2 -11 7 -14 13 -9 43 -76 43 -96 0 -9
5 -13 10 -10 12 7 30 -35 37 -85 3 -19 10 -41 15 -48 6 -7 11 -37 11 -67 0
-30 3 -56 6 -56 3 -1 93 -2 198 -3 147 -1 194 2 198 11 2 7 12 13 21 13 15 0
15 2 0 25 -9 14 -13 25 -10 25 4 0 -1 9 -11 20 -10 11 -14 20 -10 20 4 0 1 8
-8 18 -10 10 -14 21 -11 25 3 3 2 12 -2 19 -5 7 -9 18 -10 23 -12 71 -19 102
-37 152 -8 24 -11 40 -6 37 5 -3 9 1 10 8 3 48 24 78 56 78 7 0 13 4 13 9 0 5
9 11 20 14 11 3 20 1 20 -5 0 -6 7 -7 15 -4 11 4 17 -3 22 -25 3 -18 9 -27 15
-21 10 10 -10 62 -24 62 -4 0 -8 7 -8 15 0 20 10 19 26 -2 7 -10 16 -15 20
-10 4 4 -2 17 -14 30 -23 24 -30 43 -12 32 13 -8 2 44 -12 62 -6 7 -8 19 -5
27 8 21 -25 95 -46 102 -15 5 -15 8 -3 25 9 14 11 31 6 54 -4 19 -5 37 -2 40
3 3 7 11 8 18 1 7 5 19 9 28 4 12 -4 25 -29 44 -19 15 -45 43 -56 63 -15 25
-24 32 -30 23 -4 -8 -10 -9 -14 -3 -7 12 -84 14 -91 1 -4 -5 -11 -9 -16 -9 -6
0 -8 4 -4 9 6 10 -33 9 -50 -1 -16 -9 -88 -3 -110 9 -11 5 -26 8 -32 6 -7 -3
-13 1 -13 7 0 7 -7 10 -15 6 -8 -3 -20 0 -27 7 -20 19 -48 20 -48 2z"/>
</g>
</svg>
